<svg width="221" height="103" viewBox="0 0 221 103" fill="none" xmlns="http://www.w3.org/2000/svg">
<g clip-path="url(#clip0_826_14576)">
<path d="M108.029 96.7943C98.45 96.7704 89.0927 93.9117 81.1395 88.5793C73.1863 83.2469 66.9939 75.68 63.3446 66.8345C59.6953 57.989 58.7529 48.2618 60.6364 38.8816C62.5198 29.5015 67.1446 20.8893 73.9266 14.1329C80.7086 7.37649 89.3435 2.77906 98.7404 0.921408C108.137 -0.936242 117.875 0.0292159 126.723 3.6958C135.57 7.36238 143.132 13.5656 148.451 21.5218C153.771 29.478 156.61 38.8303 156.61 48.3972C156.578 61.244 151.445 73.5537 142.338 82.6264C133.231 91.6992 120.893 96.7943 108.029 96.7943ZM108.029 3.70132C99.1824 3.72253 90.5403 6.36188 83.1948 11.286C75.8492 16.2101 70.1298 23.1981 66.7589 31.367C63.3881 39.536 62.5171 48.5194 64.2561 57.1825C65.995 65.8456 70.2658 73.7996 76.529 80.0397C82.7921 86.2798 90.7667 90.526 99.4451 92.242C108.124 93.9579 117.116 93.0665 125.288 89.6805C133.459 86.2944 140.443 80.5656 145.355 73.2177C150.268 65.8699 152.89 57.2326 152.89 48.3972C152.862 36.5332 148.123 25.1649 139.713 16.7859C131.303 8.40684 119.909 3.70129 108.029 3.70132Z" fill="#2AFD88"/>
<path fill-rule="evenodd" clip-rule="evenodd" d="M82.5356 16.1625C82.5356 17.7538 82.0674 19.3094 81.1901 20.6325C80.3129 21.9557 79.066 22.9869 77.6072 23.5959C76.1484 24.2049 74.5431 24.3642 72.9945 24.0537C71.4458 23.7433 70.0232 22.977 68.9067 21.8517C67.7902 20.7265 67.0298 19.2929 66.7218 17.7322C66.4137 16.1714 66.5718 14.5537 67.1761 13.0835C67.7803 11.6133 68.8036 10.3567 70.1165 9.47265C71.4294 8.58856 72.973 8.1167 74.552 8.1167C76.6694 8.1167 78.7 8.96438 80.1973 10.4733C81.6945 11.9821 82.5356 14.0286 82.5356 16.1625Z" fill="#2AFD88"/>
<path fill-rule="evenodd" clip-rule="evenodd" d="M109.402 94.9274C109.402 96.5187 108.934 98.0743 108.056 99.3974C107.179 100.721 105.932 101.752 104.473 102.361C103.015 102.97 101.409 103.129 99.8607 102.819C98.312 102.508 96.8894 101.742 95.7729 100.617C94.6564 99.4914 93.896 98.0578 93.588 96.4971C93.2799 94.9363 93.438 93.3186 94.0423 91.8484C94.6465 90.3782 95.6698 89.1216 96.9827 88.2375C98.2956 87.3535 99.8392 86.8816 101.418 86.8816C103.536 86.8816 105.566 87.7293 107.063 89.2382C108.561 90.747 109.402 92.7935 109.402 94.9274Z" fill="#2AFD88"/>
<path fill-rule="evenodd" clip-rule="evenodd" d="M158.461 31.9821C158.461 33.5734 157.993 35.129 157.116 36.4521C156.239 37.7752 154.992 38.8065 153.533 39.4155C152.074 40.0244 150.469 40.1838 148.92 39.8733C147.372 39.5629 145.949 38.7966 144.832 37.6714C143.716 36.5461 142.956 35.1125 142.648 33.5518C142.339 31.991 142.498 30.3733 143.102 28.9031C143.706 27.4329 144.729 26.1763 146.042 25.2922C147.355 24.4081 148.899 23.9363 150.478 23.9363C152.595 23.9363 154.626 24.784 156.123 26.2928C157.62 27.8017 158.461 29.8482 158.461 31.9821Z" fill="#2AFD88"/>
</g>
<defs>
<clipPath id="clip0_826_14576">
<rect width="221" height="103" fill="white"/>
</clipPath>
</defs>
</svg>
